PathFileType	4	(X/Y/Z)	results/motion.trc
DataRate	CameraRate	NumFrames	NumMarkers	Units	OrigDataRate	OrigDataStartFrame	OrigNumFrames
27	27	8	20	mm	27	461	614
Frame#	Time	NUI_SKELETON_POSITION_HIP_CENTER	NUI_SKELETON_POSITION_HIP_RIGHT	NUI_SKELETON_POSITION_HIP_LEFT	NUI_SKELETON_POSITION_KNEE_RIGHT	NUI_SKELETON_POSITION_KNEE_LEFT	NUI_SKELETON_POSITION_ANKLE_RIGHT	NUI_SKELETON_POSITION_ANKLE_LEFT	NUI_SKELETON_POSITION_FOOT_RIGHT	NUI_SKELETON_POSITION_FOOT_LEFT	NUI_SKELETON_POSITION_SPINE	NUI_SKELETON_POSITION_SHOULDER_RIGHT	NUI_SKELETON_POSITION_SHOULDER_LEFT	NUI_SKELETON_POSITION_ELBOW_RIGHT	NUI_SKELETON_POSITION_ELBOW_LEFT	NUI_SKELETON_POSITION_WRIST_RIGHT	NUI_SKELETON_POSITION_WRIST_LEFT	NUI_SKELETON_POSITION_HAND_RIGHT	NUI_SKELETON_POSITION_HAND_LEFT	NUI_SKELETON_POSITION_SHOULDER_CENTER	NUI_SKELETON_POSITION_HEAD
X1	Y1	Z1	X2	Y2	Z2	X3	Y3	Z3	X4	Y4	Z4	X5	Y5	Z5	X6	Y6	Z6	X7	Y7	Z7	X8	Y8	Z8	X9	Y9	Z9	X10	Y10	Z10	X11	Y11	Z11	X12	Y12	Z12	X13	Y13	Z13	X14	Y14	Z14	X15	Y15	Z15	X16	Y16	Z16	X17	Y17	Z17	X18	Y18	Z18	X19	Y19	Z19	X20	Y20	Z20	
461	16.274000	-126.976937	-148.354515	2872.800827	-47.292683	-231.150255	2872.534990	-212.871999	-226.869941	2866.755247	-5.789622	-608.337641	2734.136581	-182.454422	-602.754593	2956.471443	26.081363	-923.125625	2635.040998	-201.256469	-887.034953	3111.945868	36.988199	-997.160554	2581.298351	-212.214857	-935.208440	3047.731161	-122.311562	-82.510218	2885.951281	68.137571	135.529190	2875.699043	-289.184660	152.735144	2917.422295	234.136567	-1.687770	2882.745266	-480.549842	47.592696	2976.927519	415.931463	23.004072	2787.616968	-649.307072	98.617770	2878.311396	440.326124	41.245244	2759.689331	-713.849425	120.833859	2847.051144	-111.586608	249.456599	2875.983953	-98.633662	423.852772	2836.154461	
462	16.293000	-132.050186	-148.089692	2886.621237	-52.321754	-230.923593	2887.104750	-217.736155	-226.679176	2879.687309	-8.647835	-608.151019	2746.638536	-184.483290	-603.116333	2962.907314	29.487291	-919.919968	2649.925470	-199.683949	-888.196051	3113.018751	40.410861	-993.798316	2593.994856	-210.563242	-936.784744	3049.210787	-127.524942	-82.310811	2899.891615	62.327076	135.458738	2889.888048	-294.609785	153.056175	2930.089712	227.625027	-1.880370	2898.303986	-486.465544	48.098139	2990.071058	408.912808	22.643890	2802.880287	-654.361725	99.366464	2889.775276	431.272566	40.990703	2775.987625	-718.035400	121.197864	2858.725071	-117.245473	249.243498	2890.067339	-104.021743	423.499286	2849.336147	
463	16.341000	-136.682317	-147.675946	2899.301052	-56.870475	-230.574220	2900.474548	-222.182766	-226.337403	2891.565800	-11.168751	-607.713342	2758.468866	-186.452642	-603.339791	2968.867302	33.204373	-916.736662	2666.878939	-198.204800	-889.367998	3113.594532	44.504557	-990.473807	2609.766006	-208.937824	-938.296020	3049.961567	-132.304743	-81.972070	2912.656069	56.989886	135.377929	2903.122902	-299.652189	153.576121	2941.753149	221.730247	-1.788726	2913.141489	-491.826683	48.667900	3001.899958	402.476996	22.683308	2817.148685	-658.996880	100.120418	2900.151730	423.424274	41.104525	2790.439367	-722.058296	121.735804	2869.293690	-122.471265	249.119639	2902.874470	-109.007768	423.316151	2861.392736	
464	16.373000	-140.873328	-147.106260	2910.932064	-60.950324	-230.057076	2912.744999	-226.186961	-225.863963	2902.422190	-13.323181	-606.639445	2769.839525	-188.334048	-603.473902	2974.369526	38.146619	-913.693011	2688.063145	-196.821064	-890.536427	3113.756895	50.393581	-986.409247	2633.922815	-208.166048	-941.035628	3053.917170	-136.658013	-81.464432	2924.394846	52.146211	135.380760	2915.317297	-304.279566	154.347152	2952.553272	216.486856	-1.490253	2926.981926	-496.633738	49.247406	3012.526035	396.654725	23.350548	2830.726147	-663.257003	100.869969	2909.627438	416.012168	42.096626	2805.843592	-725.674570	122.313544	2879.084826	-127.391815	249.234557	2914.773226	-113.619223	423.321635	2872.504234	
465	16.408000	-144.640416	-146.431744	2921.518326	-64.597540	-229.408145	2923.891544	-229.770914	-225.274980	2912.341356	-15.123590	-605.315983	2780.729294	-190.139607	-603.528917	2979.461193	44.031929	-910.799384	2716.074228	-195.551023	-891.687214	3113.796949	56.982130	-983.113348	2662.853718	-207.553446	-943.903029	3057.762623	-140.597224	-80.840372	2935.095072	47.647227	135.750830	2926.804304	-308.488995	155.158594	2962.414265	211.837128	-0.852632	2940.079689	-500.959277	49.835261	3022.159815	391.408503	24.225853	2843.178749	-667.058766	101.560369	2918.155432	409.389168	43.214422	2819.721460	-728.912354	122.874111	2887.938499	-131.924972	249.516949	2925.639868	-117.841601	423.422515	2882.609367	
466	16.444000	-147.981972	-145.699084	2931.128025	-67.815445	-228.690386	2933.972120	-232.942089	-224.627495	2921.364069	-16.464159	-603.899956	2791.520834	-191.851094	-603.511035	2984.126329	50.370760	-908.149362	2746.301174	-194.362313	-892.787933	3113.804102	63.560672	-981.014609	2698.782206	-207.138360	-946.825564	3061.882257	-144.110084	-80.143996	2944.836617	43.548379	136.356264	2937.524080	-312.300146	156.005934	2971.390963	207.698062	-0.021532	2952.083588	-504.824579	50.420869	3030.838966	386.747599	25.546379	2855.054379	-670.460880	102.194890	2925.833941	404.230237	44.919927	2832.112074	-731.818914	123.399608	2895.886660	-136.024415	249.953523	2935.598850	-121.687673	423.714846	2891.913652	
467	16.490000	-150.896668	-144.852862	2939.953804	-70.592821	-227.827340	2943.232059	-235.708624	-223.887324	2929.645777	-17.131735	-602.187991	2803.138971	-193.439394	-603.392065	2988.521099	57.146471	-905.181408	2786.848068	-193.273500	-893.864036	3113.822937	71.208254	-978.126645	2742.651463	-205.984578	-948.497653	3062.544584	-147.187799	-79.319805	2953.807592	39.887976	137.130678	2947.361708	-315.735102	156.885818	2979.619980	204.170242	1.025742	2963.115454	-508.329153	51.020246	3038.719893	382.827878	27.390210	2866.504431	-673.538148	102.810808	2932.788372	399.794132	47.049858	2843.978643	-734.410107	123.914123	2903.080225	-139.667347	250.577778	2944.753885	-125.207633	424.314350	2900.802851	
468	16.548000	-153.422743	-143.972188	2948.003769	-72.979897	-226.911128	2951.663733	-238.094747	-223.113462	2937.215328	-17.257398	-600.332141	2815.979481	-194.917902	-603.212953	2992.573500	63.303255	-902.463138	2825.344563	-192.265436	-894.914508	3113.670111	75.843446	-972.643435	2776.420355	-204.837099	-950.031400	3062.695742	-149.869651	-78.453086	2962.006092	36.662966	137.992561	2956.294060	-318.795025	157.717720	2987.017393	201.087892	2.082702	2973.096132	-511.453390	51.586773	3045.825720	379.468948	29.579546	2877.335548	-676.331282	103.440568	2939.157248	396.031052	49.287517	2854.800701	-736.739933	124.407925	2909.603357	-142.896578	251.294225	2953.123569	-128.428116	425.118566	2909.065008	
